<mxfile host="app.diagrams.net" modified="2022-04-25T10:25:53.419Z" agent="5.0 (Windows)" etag="MO2H2MNnzgKEfmDLtX83" version="17.4.1" type="github">
  <diagram id="vorPppTYI3svFaDWdeqV" name="Page-1">
    <mxGraphModel dx="2903" dy="1072" grid="1" gridSize="10" guides="1" tooltips="1" connect="1" arrows="1" fold="1" page="1" pageScale="1" pageWidth="827" pageHeight="1169" math="0" shadow="0">
      <root>
        <mxCell id="0" />
        <mxCell id="1" parent="0" />
        <mxCell id="96npwc-eBsuGG_UCnPfI-1" value="" style="rounded=1;whiteSpace=wrap;html=1;strokeColor=#000000;strokeWidth=2;fillColor=#fff2cc;" vertex="1" parent="1">
          <mxGeometry x="-550" y="140" width="1610" height="1000" as="geometry" />
        </mxCell>
        <mxCell id="96npwc-eBsuGG_UCnPfI-2" value="&lt;font style=&quot;font-size: 18px&quot;&gt;&lt;b&gt;&lt;font style=&quot;font-size: 18px&quot;&gt;SQL&lt;/font&gt;&lt;/b&gt;&lt;/font&gt;" style="shape=cylinder3;whiteSpace=wrap;html=1;boundedLbl=1;backgroundOutline=1;size=15;fillColor=#f5f5f5;fontColor=#333333;strokeColor=#666666;" vertex="1" parent="1">
          <mxGeometry x="50" y="910" width="111.5" height="90" as="geometry" />
        </mxCell>
        <mxCell id="96npwc-eBsuGG_UCnPfI-3" value="&lt;font style=&quot;font-size: 40px&quot;&gt;&lt;font style=&quot;font-size: 40px&quot;&gt;&lt;u&gt;&lt;b&gt;&lt;font style=&quot;font-size: 40px&quot;&gt;mock eCSM back-end Diagram&lt;/font&gt;&lt;/b&gt;&lt;/u&gt;&lt;br&gt;&lt;/font&gt;&lt;/font&gt;" style="text;html=1;align=center;verticalAlign=middle;resizable=0;points=[];autosize=1;strokeColor=none;fillColor=none;" vertex="1" parent="1">
          <mxGeometry x="114" y="1200" width="600" height="30" as="geometry" />
        </mxCell>
        <mxCell id="96npwc-eBsuGG_UCnPfI-4" value="&lt;font style=&quot;font-size: 18px&quot;&gt;REST CONTROLLER&lt;/font&gt;" style="rounded=0;whiteSpace=wrap;html=1;strokeWidth=2;fillColor=#f5f5f5;fontColor=#333333;strokeColor=#666666;" vertex="1" parent="1">
          <mxGeometry x="249" y="260" width="330" height="70" as="geometry" />
        </mxCell>
        <mxCell id="96npwc-eBsuGG_UCnPfI-5" value="IHM Get request" style="text;html=1;strokeColor=none;fillColor=none;align=center;verticalAlign=middle;whiteSpace=wrap;rounded=0;fontSize=18;rotation=0;" vertex="1" parent="1">
          <mxGeometry x="174" y="90" width="240" height="30" as="geometry" />
        </mxCell>
        <mxCell id="96npwc-eBsuGG_UCnPfI-6" value="&lt;font style=&quot;font-size: 18px&quot;&gt;SERVICES&lt;/font&gt;" style="rounded=0;whiteSpace=wrap;html=1;strokeWidth=2;fillColor=#f5f5f5;fontColor=#333333;strokeColor=#666666;" vertex="1" parent="1">
          <mxGeometry x="248.5" y="430" width="330" height="70" as="geometry" />
        </mxCell>
        <mxCell id="96npwc-eBsuGG_UCnPfI-7" value="" style="endArrow=classic;html=1;rounded=0;fontSize=18;strokeWidth=3;exitX=0.25;exitY=1;exitDx=0;exitDy=0;" edge="1" parent="1" source="96npwc-eBsuGG_UCnPfI-4">
          <mxGeometry width="50" height="50" relative="1" as="geometry">
            <mxPoint x="320.5" y="360" as="sourcePoint" />
            <mxPoint x="330" y="430" as="targetPoint" />
          </mxGeometry>
        </mxCell>
        <mxCell id="96npwc-eBsuGG_UCnPfI-8" value="&lt;font style=&quot;font-size: 18px&quot;&gt;JPA REPOSITORY&lt;/font&gt;" style="rounded=0;whiteSpace=wrap;html=1;strokeWidth=2;fillColor=#f5f5f5;fontColor=#333333;strokeColor=#666666;" vertex="1" parent="1">
          <mxGeometry x="249" y="610" width="330" height="70" as="geometry" />
        </mxCell>
        <mxCell id="96npwc-eBsuGG_UCnPfI-9" value="" style="endArrow=classic;html=1;rounded=0;fontSize=18;strokeWidth=3;exitX=0.25;exitY=1;exitDx=0;exitDy=0;entryX=0.25;entryY=0;entryDx=0;entryDy=0;" edge="1" parent="1" source="96npwc-eBsuGG_UCnPfI-6" target="96npwc-eBsuGG_UCnPfI-8">
          <mxGeometry width="50" height="50" relative="1" as="geometry">
            <mxPoint x="290" y="470" as="sourcePoint" />
            <mxPoint x="331.5" y="640" as="targetPoint" />
          </mxGeometry>
        </mxCell>
        <mxCell id="96npwc-eBsuGG_UCnPfI-10" value="&lt;div&gt;&lt;font style=&quot;font-size: 14px&quot;&gt;getSpectrums&lt;/font&gt;&lt;/div&gt;&lt;div&gt;&lt;font style=&quot;font-size: 14px&quot;&gt;&lt;b&gt;&lt;i&gt;JSON body&lt;/i&gt;&lt;/b&gt;&lt;br&gt;&lt;/font&gt;&lt;/div&gt;" style="text;html=1;align=center;verticalAlign=middle;resizable=0;points=[];autosize=1;strokeColor=none;fillColor=none;fontSize=18;" vertex="1" parent="1">
          <mxGeometry x="190" y="340" width="100" height="50" as="geometry" />
        </mxCell>
        <mxCell id="96npwc-eBsuGG_UCnPfI-11" value="&lt;div&gt;&lt;font style=&quot;font-size: 14px&quot;&gt;getSpectrums&lt;/font&gt;&lt;/div&gt;&lt;div&gt;&lt;font style=&quot;font-size: 14px&quot;&gt;&lt;b&gt;&lt;i&gt;JSON body&lt;/i&gt;&lt;/b&gt;&lt;br&gt;&lt;/font&gt;&lt;/div&gt;" style="text;html=1;align=center;verticalAlign=middle;resizable=0;points=[];autosize=1;strokeColor=none;fillColor=none;fontSize=18;" vertex="1" parent="1">
          <mxGeometry x="190" y="510" width="100" height="50" as="geometry" />
        </mxCell>
        <mxCell id="96npwc-eBsuGG_UCnPfI-13" value="&lt;div&gt;&lt;font style=&quot;font-size: 14px&quot;&gt;getMeasures&lt;/font&gt;&lt;/div&gt;&lt;div&gt;&lt;font style=&quot;font-size: 14px&quot;&gt;&lt;b&gt;&lt;i&gt;SQL query &lt;br&gt;&lt;/i&gt;&lt;/b&gt;&lt;/font&gt;&lt;/div&gt;" style="text;html=1;align=center;verticalAlign=middle;resizable=0;points=[];autosize=1;strokeColor=none;fillColor=none;fontSize=18;" vertex="1" parent="1">
          <mxGeometry y="585" width="100" height="50" as="geometry" />
        </mxCell>
        <mxCell id="96npwc-eBsuGG_UCnPfI-15" value="&lt;div&gt;&lt;font style=&quot;font-size: 14px&quot;&gt;getSpectrums&lt;/font&gt;&lt;/div&gt;&lt;div&gt;&lt;font style=&quot;font-size: 14px&quot;&gt;&lt;b&gt;&lt;i&gt;SQL response&lt;br&gt;&lt;/i&gt;&lt;/b&gt;&lt;/font&gt;&lt;/div&gt;" style="text;html=1;align=center;verticalAlign=middle;resizable=0;points=[];autosize=1;strokeColor=none;fillColor=none;fontSize=18;" vertex="1" parent="1">
          <mxGeometry x="505" y="730" width="110" height="50" as="geometry" />
        </mxCell>
        <mxCell id="96npwc-eBsuGG_UCnPfI-16" value="" style="endArrow=classic;html=1;rounded=0;fontSize=18;strokeWidth=3;entryX=0.75;entryY=1;entryDx=0;entryDy=0;exitX=0.75;exitY=0;exitDx=0;exitDy=0;" edge="1" parent="1" source="96npwc-eBsuGG_UCnPfI-8" target="96npwc-eBsuGG_UCnPfI-6">
          <mxGeometry width="50" height="50" relative="1" as="geometry">
            <mxPoint x="496" y="610" as="sourcePoint" />
            <mxPoint x="350" y="500" as="targetPoint" />
          </mxGeometry>
        </mxCell>
        <mxCell id="96npwc-eBsuGG_UCnPfI-17" value="&lt;div&gt;&lt;font style=&quot;font-size: 14px&quot;&gt;getSpectrums&lt;/font&gt;&lt;/div&gt;&lt;div&gt;&lt;font style=&quot;font-size: 14px&quot;&gt;&lt;b&gt;&lt;i&gt;Java object&lt;br&gt;&lt;/i&gt;&lt;/b&gt;&lt;/font&gt;&lt;/div&gt;" style="text;html=1;align=center;verticalAlign=middle;resizable=0;points=[];autosize=1;strokeColor=none;fillColor=none;fontSize=18;" vertex="1" parent="1">
          <mxGeometry x="510" y="510" width="100" height="50" as="geometry" />
        </mxCell>
        <mxCell id="96npwc-eBsuGG_UCnPfI-18" value="" style="endArrow=classic;html=1;rounded=0;fontSize=18;strokeWidth=3;exitX=0.75;exitY=0;exitDx=0;exitDy=0;entryX=0.75;entryY=1;entryDx=0;entryDy=0;" edge="1" parent="1" source="96npwc-eBsuGG_UCnPfI-6" target="96npwc-eBsuGG_UCnPfI-4">
          <mxGeometry width="50" height="50" relative="1" as="geometry">
            <mxPoint x="490.5" y="430" as="sourcePoint" />
            <mxPoint x="496" y="360" as="targetPoint" />
          </mxGeometry>
        </mxCell>
        <mxCell id="96npwc-eBsuGG_UCnPfI-19" value="&lt;div&gt;&lt;font style=&quot;font-size: 14px&quot;&gt;getSpectrums&lt;/font&gt;&lt;/div&gt;&lt;div&gt;&lt;font style=&quot;font-size: 14px&quot;&gt;&lt;b&gt;&lt;i&gt;JSON response&lt;br&gt;&lt;/i&gt;&lt;/b&gt;&lt;/font&gt;&lt;/div&gt;" style="text;html=1;align=center;verticalAlign=middle;resizable=0;points=[];autosize=1;strokeColor=none;fillColor=none;fontSize=18;" vertex="1" parent="1">
          <mxGeometry x="500" y="350" width="120" height="50" as="geometry" />
        </mxCell>
        <mxCell id="96npwc-eBsuGG_UCnPfI-20" value="&lt;p&gt;&lt;font style=&quot;font-size: 14px&quot; color=&quot;#0000FF&quot;&gt;&lt;br&gt;&lt;/font&gt;&lt;/p&gt;&lt;p&gt;&lt;font style=&quot;font-size: 14px&quot; color=&quot;#0000FF&quot;&gt;&amp;nbsp; {&lt;br&gt;&amp;nbsp; &amp;nbsp;&amp;nbsp; &quot;timestamp&quot; : &quot;2016-05-21 14:00:00;&lt;font style=&quot;font-size: 14px&quot;&gt;&lt;br&gt;&amp;nbsp; }&lt;/font&gt;&lt;br&gt;&lt;/font&gt;&lt;/p&gt;&lt;p style=&quot;font-size: 14px&quot; align=&quot;left&quot;&gt;&lt;font style=&quot;font-size: 14px&quot; color=&quot;#0000FF&quot;&gt;&lt;br&gt;&lt;/font&gt;&lt;/p&gt;" style="shape=callout;whiteSpace=wrap;html=1;perimeter=calloutPerimeter;fontSize=17;strokeColor=#36393d;strokeWidth=2;position2=1;base=60;size=30;position=0.48;fillColor=#cce5ff;align=left;" vertex="1" parent="1">
          <mxGeometry x="-200" y="240" width="250" height="110" as="geometry" />
        </mxCell>
        <mxCell id="96npwc-eBsuGG_UCnPfI-21" value="&lt;p&gt;&lt;font style=&quot;font-size: 14px&quot; color=&quot;#0000FF&quot;&gt;&amp;nbsp; SELECT carrier, snr FROM MeasureSignal &lt;br&gt;&amp;nbsp; WHERE TIMESTAMP IN [...]&lt;br&gt;&lt;/font&gt;&lt;/p&gt;" style="shape=callout;whiteSpace=wrap;html=1;perimeter=calloutPerimeter;fontSize=17;strokeColor=#36393d;strokeWidth=2;position2=1;base=60;size=30;position=0.48;fillColor=#cce5ff;align=left;" vertex="1" parent="1">
          <mxGeometry x="-530" y="580" width="280" height="110" as="geometry" />
        </mxCell>
        <mxCell id="96npwc-eBsuGG_UCnPfI-22" value="" style="shape=callout;whiteSpace=wrap;html=1;perimeter=calloutPerimeter;fontSize=17;strokeColor=#36393d;strokeWidth=2;position2=1;base=60;size=30;position=0.48;fillColor=#cce5ff;align=left;rotation=-180;" vertex="1" parent="1">
          <mxGeometry x="650" y="640" width="260" height="120" as="geometry" />
        </mxCell>
        <mxCell id="96npwc-eBsuGG_UCnPfI-23" value="&lt;p&gt;&lt;font style=&quot;font-size: 14px&quot; color=&quot;#0000FF&quot;&gt;&amp;nbsp;{&lt;br&gt;&amp;nbsp;&amp;nbsp;&amp;nbsp; &quot;spectrums&quot; : [&lt;br&gt;&amp;nbsp;&amp;nbsp;&amp;nbsp;&amp;nbsp;&amp;nbsp;&amp;nbsp;&amp;nbsp; {&amp;nbsp; &quot;timestamp&quot; : &quot;2016-05-21 14:&lt;b&gt;&lt;font color=&quot;#FF0000&quot;&gt;00&lt;/font&gt;&lt;/b&gt;:00,&lt;br&gt;&amp;nbsp;&amp;nbsp;&amp;nbsp;&amp;nbsp;&amp;nbsp;&amp;nbsp;&amp;nbsp;&amp;nbsp;&amp;nbsp;&amp;nbsp; &quot;snr_dB&quot;: 25,&lt;br&gt;&amp;nbsp;&amp;nbsp;&amp;nbsp;&amp;nbsp;&amp;nbsp;&amp;nbsp;&amp;nbsp;&amp;nbsp;&amp;nbsp;&amp;nbsp; &quot; abscisses&quot; : &quot;1100,1250,1375 [...]&quot;,&lt;br&gt;&amp;nbsp;&amp;nbsp;&amp;nbsp;&amp;nbsp;&amp;nbsp;&amp;nbsp;&amp;nbsp; },&lt;br&gt;&lt;/font&gt;&lt;font style=&quot;font-size: 14px&quot; color=&quot;#0000FF&quot;&gt;&amp;nbsp;&amp;nbsp;&amp;nbsp;&amp;nbsp;&amp;nbsp;&amp;nbsp;&amp;nbsp; {&amp;nbsp; &quot;timestamp&quot; : &quot;2016-05-21 14:&lt;font color=&quot;#FF0000&quot;&gt;&lt;b&gt;10&lt;/b&gt;&lt;/font&gt;:00,&lt;br&gt;&amp;nbsp;&amp;nbsp;&amp;nbsp;&amp;nbsp;&amp;nbsp;&amp;nbsp;&amp;nbsp;&amp;nbsp;&amp;nbsp;&amp;nbsp; &quot;snr_dB&quot;: 25,&lt;br&gt;&amp;nbsp;&amp;nbsp;&amp;nbsp;&amp;nbsp;&amp;nbsp;&amp;nbsp;&amp;nbsp;&amp;nbsp;&amp;nbsp;&amp;nbsp; &quot; abscisses&quot; : &quot;1100,1250,1375 [...]&quot;,&lt;br&gt;&amp;nbsp;&amp;nbsp;&amp;nbsp;&amp;nbsp;&amp;nbsp;&amp;nbsp;&amp;nbsp; }, &lt;br&gt;&amp;nbsp;&amp;nbsp;&amp;nbsp;&amp;nbsp;&amp;nbsp;&amp;nbsp;&amp;nbsp; [...]&lt;br&gt;&amp;nbsp;}&lt;br&gt;&lt;/font&gt;&lt;/p&gt;" style="shape=callout;whiteSpace=wrap;html=1;perimeter=calloutPerimeter;fontSize=17;strokeColor=#36393d;strokeWidth=2;position2=0;base=60;size=30;position=0.48;fillColor=#cce5ff;align=left;" vertex="1" parent="1">
          <mxGeometry x="650" y="210" width="330" height="280" as="geometry" />
        </mxCell>
        <mxCell id="96npwc-eBsuGG_UCnPfI-24" value="&lt;br&gt;&lt;p&gt;&lt;font style=&quot;font-size: 14px&quot; color=&quot;#0000FF&quot;&gt;&amp;nbsp; List&amp;lt;MeasureSpectrum&amp;gt; listSpectrum;&lt;/font&gt;&lt;/p&gt;&lt;p&gt;&lt;font style=&quot;font-size: 14px&quot; color=&quot;#0000FF&quot;&gt;&amp;nbsp; List&amp;lt;MeasureSignal&amp;gt; listMeasure;&lt;br&gt;&lt;/font&gt;&lt;/p&gt;&lt;br&gt;&lt;br&gt;" style="text;html=1;align=center;verticalAlign=middle;resizable=0;points=[];autosize=1;strokeColor=none;fillColor=none;fontSize=14;fontFamily=Helvetica;fontColor=#0000FF;" vertex="1" parent="1">
          <mxGeometry x="650" y="662.5" width="260" height="130" as="geometry" />
        </mxCell>
        <mxCell id="96npwc-eBsuGG_UCnPfI-25" value="" style="endArrow=none;html=1;rounded=0;fontFamily=Helvetica;fontSize=14;fontColor=#FF0000;strokeWidth=3;entryX=0.25;entryY=0;entryDx=0;entryDy=0;" edge="1" parent="1" target="96npwc-eBsuGG_UCnPfI-4">
          <mxGeometry width="50" height="50" relative="1" as="geometry">
            <mxPoint x="332" y="120" as="sourcePoint" />
            <mxPoint x="460" y="250" as="targetPoint" />
          </mxGeometry>
        </mxCell>
        <mxCell id="96npwc-eBsuGG_UCnPfI-26" value="" style="endArrow=none;html=1;rounded=0;fontFamily=Helvetica;fontSize=14;fontColor=#FF0000;strokeWidth=3;entryX=0.25;entryY=0;entryDx=0;entryDy=0;" edge="1" parent="1">
          <mxGeometry width="50" height="50" relative="1" as="geometry">
            <mxPoint x="498.32000000000016" y="120" as="sourcePoint" />
            <mxPoint x="497.82000000000016" y="260" as="targetPoint" />
          </mxGeometry>
        </mxCell>
        <mxCell id="96npwc-eBsuGG_UCnPfI-27" value="&lt;div&gt;&lt;font style=&quot;font-size: 14px&quot;&gt;/api/getSpectrums&lt;/font&gt;&lt;/div&gt;&lt;div&gt;&lt;font style=&quot;font-size: 14px&quot;&gt;&lt;i&gt;&lt;b&gt;HTTP GET&lt;/b&gt;&lt;/i&gt;&lt;br&gt;&lt;/font&gt;&lt;/div&gt;" style="text;html=1;align=center;verticalAlign=middle;resizable=0;points=[];autosize=1;strokeColor=none;fillColor=none;fontSize=18;" vertex="1" parent="1">
          <mxGeometry x="175" y="180" width="130" height="50" as="geometry" />
        </mxCell>
        <mxCell id="96npwc-eBsuGG_UCnPfI-28" value="&lt;div&gt;&lt;font style=&quot;font-size: 14px&quot;&gt;/api/putSpectrums&lt;/font&gt;&lt;/div&gt;&lt;div&gt;&lt;font style=&quot;font-size: 14px&quot;&gt;&lt;i&gt;&lt;b&gt;HTTP POST&lt;/b&gt;&lt;/i&gt;&lt;br&gt;&lt;/font&gt;&lt;/div&gt;" style="text;html=1;align=center;verticalAlign=middle;resizable=0;points=[];autosize=1;strokeColor=none;fillColor=none;fontSize=18;" vertex="1" parent="1">
          <mxGeometry x="495" y="180" width="130" height="50" as="geometry" />
        </mxCell>
        <mxCell id="96npwc-eBsuGG_UCnPfI-29" value="IHM Put response" style="text;html=1;strokeColor=none;fillColor=none;align=center;verticalAlign=middle;whiteSpace=wrap;rounded=0;fontSize=18;rotation=0;" vertex="1" parent="1">
          <mxGeometry x="450" y="90" width="240" height="30" as="geometry" />
        </mxCell>
        <mxCell id="96npwc-eBsuGG_UCnPfI-30" value="&lt;p&gt;&lt;font style=&quot;font-size: 14px&quot; color=&quot;#0000FF&quot;&gt;&amp;nbsp; SELECT * FROM MeasureSpectrum&lt;br&gt;&amp;nbsp; where TIMESTAMP IN [...]&lt;br&gt;&lt;/font&gt;&lt;/p&gt;&lt;p&gt;&lt;font style=&quot;font-size: 14px&quot; color=&quot;#0000FF&quot;&gt;&amp;nbsp; SELECT carrier, snr FROM MeasureSignal &lt;br&gt;&amp;nbsp; WHERE TIMESTAMP IN [...]&lt;br&gt;&lt;/font&gt;&lt;/p&gt;" style="shape=callout;whiteSpace=wrap;html=1;perimeter=calloutPerimeter;fontSize=17;strokeColor=#36393d;strokeWidth=2;position2=1;base=60;size=30;position=0.48;fillColor=#cce5ff;align=left;" vertex="1" parent="1">
          <mxGeometry x="-240" y="420" width="280" height="150" as="geometry" />
        </mxCell>
        <mxCell id="96npwc-eBsuGG_UCnPfI-31" value="&lt;b&gt;&lt;font style=&quot;font-size: 18px&quot;&gt;NoSQL&lt;/font&gt;&lt;/b&gt;" style="shape=cylinder3;whiteSpace=wrap;html=1;boundedLbl=1;backgroundOutline=1;size=15;fillColor=#f5f5f5;fontColor=#333333;strokeColor=#666666;" vertex="1" parent="1">
          <mxGeometry x="420" y="910" width="111.5" height="90" as="geometry" />
        </mxCell>
      </root>
    </mxGraphModel>
  </diagram>
</mxfile>
